# xmcd
#
# Track frame offsets:
#   150
#   16859
#   40852
#   57948
#   78401
#   102353
#   123354
#   144042
#   167956
#   198970
#   218425
#   238431
#   254683
#   274922
#   294904
#   312269
#   331736
#
# Disc length: 4645 seconds
#
# Revision: 0
# Processed by: cddbd v1.5.1PL0 Copyright (c) Steve Scherf et al.
# Submitted via: Media_Universe 3.0
#
DISCID=ef122311
DTITLE=Richard Marx - Richard Marx vs. Ines
DYEAR=1900
DGENRE=Blues
TTITLE0=At the beginning
TTITLE1=Angelia
TTITLE2=Because i love you
TTITLE3=Endless Summer Nights
TTITLE4=Hazard
TTITLE5=Hold On To The Night
TTITLE6=I Just Died In Your Arms
TTITLE7=I swear
TTITLE8=Keep Coming Back
TTITLE9=Lady in Red
TTITLE10=Missing You
TTITLE11=Now And Forever
TTITLE12=Oceans Apart
TTITLE13=Wherever you go
TTITLE14=15 magamata ööd
TTITLE15=Stronger Than Ever
TTITLE16=One and Only
EXTD=
EXTT0=
EXTT1=
EXTT2=
EXTT3=
EXTT4=
EXTT5=
EXTT6=
EXTT7=
EXTT8=
EXTT9=
EXTT10=
EXTT11=
EXTT12=
EXTT13=
EXTT14=
EXTT15=
EXTT16=
PLAYORDER=
